<svg width="36" height="36" viewBox="0 0 36 36" fill="none" xmlns="http://www.w3.org/2000/svg">
<path d="M15.435 5.78994L2.73 26.9999C2.46805 27.4536 2.32945 27.9679 2.32798 28.4917C2.32652 29.0156 2.46224 29.5306 2.72164 29.9857C2.98104 30.4408 3.35509 30.8201 3.80656 31.0857C4.25804 31.3514 4.7712 31.4942 5.295 31.4999H30.705C31.2288 31.4942 31.742 31.3514 32.1934 31.0857C32.6449 30.8201 33.019 30.4408 33.2784 29.9857C33.5378 29.5306 33.6735 29.0156 33.672 28.4917C33.6706 27.9679 33.5319 27.4536 33.27 26.9999L20.565 5.78994C20.2976 5.3491 19.9211 4.98462 19.4718 4.73167C19.0225 4.47871 18.5156 4.34583 18 4.34583C17.4844 4.34583 16.9775 4.47871 16.5282 4.73167C16.0789 4.98462 15.7024 5.3491 15.435 5.78994Z" stroke="black" stroke-width="2" stroke-linecap="round" stroke-linejoin="round"/>
<path d="M18 13.5V19.5" stroke="black" stroke-width="2" stroke-linecap="round" stroke-linejoin="round"/>
<path d="M18 25.5H18.015" stroke="black" stroke-width="2" stroke-linecap="round" stroke-linejoin="round"/>
</svg>
