<svg width="120" height="120" viewBox="0 0 120 120" fill="none" xmlns="http://www.w3.org/2000/svg">
<g opacity="0.5">
<path d="M105 57.5C105.017 64.0993 103.475 70.6094 100.5 76.5C96.9722 83.5587 91.5488 89.4959 84.8372 93.6464C78.1257 97.7969 70.3912 99.997 62.5 100C55.9007 100.017 49.3906 98.4754 43.5 95.5L15 105L24.5 76.5C21.5247 70.6094 19.9828 64.0993 20 57.5C20.0031 49.6088 22.2031 41.8743 26.3536 35.1628C30.5041 28.4512 36.4413 23.0278 43.5 19.5C49.3906 16.5247 55.9007 14.9828 62.5 15H65C75.4217 15.575 85.2652 19.9738 92.6457 27.3543C100.026 34.7348 104.425 44.5783 105 55V57.5Z" stroke="black" stroke-width="2" stroke-linecap="round" stroke-linejoin="round"/>
</g>
</svg>
